<?xml version="1.0" encoding="utf-8"?>
<!-- Generator: Adobe Illustrator 25.0.0, SVG Export Plug-In . SVG Version: 6.00 Build 0)  -->
<svg version="1.1" id="图层_1" xmlns="http://www.w3.org/2000/svg" xmlns:xlink="http://www.w3.org/1999/xlink" x="0px" y="0px"
	 viewBox="0 0 194 30" style="enable-background:new 0 0 194 30;" xml:space="preserve">
<style type="text/css">
	.st0{fill-rule:evenodd;clip-rule:evenodd;fill:#566FCF;}
</style>
<path class="st0" d="M31,9.8V0h-9.8v3.6H10.8V0H1v9.8h3.6v10.4H1V30h9.8v-3.6h10.4V30H31v-9.8h-3.6V9.8H31z M2.9,1.9h6v6h-6V1.9z
	 M29.1,28.1h-6v-6h6V28.1z M24.8,20.2h-3.6v3.6H10.8v-3.6H7.2V9.8h3.6V6.2h10.4v3.6h3.6V20.2z"/>
<g>
	<path d="M45.1,10.8h2.6c0,2.7-0.1,5.2-0.2,7.5s-0.4,4.5-0.8,6.7h-2.8C44.7,21,45.1,16.3,45.1,10.8z M48.6,9.8h-4.1v-3h4.1V4.1h3.1
		v2.7h1.9v3h-1.9v3.1l1.4,1.1v3.7l-1.4-1.1v9.7h-3.1V9.8z M54.1,14.8h2.7c0,3.5-0.5,7-1.5,10.4h-3.1C53.5,21.8,54.1,18.3,54.1,14.8z
		 M53.3,10.5h13.5v3.1h-5.1v12.8h-5v-3h1.9v-9.7h-5.3V10.5z M54.5,4.4h11v3h-11V4.4z M65.5,15c1,3.4,1.5,6.9,1.5,10.4h-2.8
		c0-3.5-0.6-7-1.7-10.4H65.5z"/>
	<path d="M78,20.8c0.5-1.7,0.9-3.4,1.1-5h3.5c-0.4,3.5-1.4,7-2.7,10.5h-3.8C76.9,24.3,77.5,22.5,78,20.8z M76.3,10l6.2,1.4v3.3
		l-6.2-1.4V10z M76.8,4.2l5.6,1.4v3.3l-5.6-1.4V4.2z M82.6,22.6h6.2v-5h-5v-3.1h5v-4.4h-5.5V6.9h5.4l-0.6-3h3.4l0.6,3H98v3.1h-5.8
		v4.4h5.2v3.1h-5.2v5h6.4v3.1H82.6V22.6z"/>
	<path d="M120.9,4v2.8h8.9v13.9h-8.9v5.6h-3.2v-5.6h-8.9V6.8h8.9V4H120.9z M117.7,17.5V10H112v7.5H117.7z M126.6,17.5V10h-5.7v7.5
		H126.6z"/>
	<path d="M141.8,7.9h3.2c-0.4,5.4-1,10.4-1.8,15h-3.4C140.8,17.9,141.5,12.9,141.8,7.9z M146.1,6.6h3.1v16.5h11.3v3.2h-14.4V6.6z
		 M153.6,3.8c0.8,3.7,1.4,7.4,1.8,11.1h-3c-0.3-3.7-1-7.4-1.9-11.1H153.6z M157,7.8h3.3c1,4.7,1.8,9.4,2.2,14.2h-3.2
		C159,17.3,158.2,12.6,157,7.8z"/>
</g>
</svg>
